<svg t="1650114802505" class="icon" viewBox="0 0 1024 1024" version="1.1" xmlns="http://www.w3.org/2000/svg" p-id="2132" width="2500" height="2500"><path d="M576.969 109.938c8.882 0 17.816 1.149 26.75 3.344 22.257 15.622 31.191 53.5 26.75 113.688 0 31.243-6.688 72.465-20.063 123.719-4.493 17.868-7.837 37.931-10.031 60.188-6.688 13.375-10.031 22.309-10.031 26.75 0 4.493 1.672 6.688 5.016 6.688s12.801-4.441 28.422-13.375c42.319-17.816 80.25-26.75 113.688-26.75 11.129-4.441 20.063-4.441 26.75 0 8.882 2.247 13.375 5.59 13.375 10.031 0 8.934-4.493 14.524-13.375 16.719-6.688 4.493-14.524 7.837-23.406 10.031-8.934 2.247-17.868 3.344-26.75 3.344-8.934 0-13.949-0.522-15.047-1.672-1.149-1.097 1.672-5.016 8.359-11.703 6.688-8.882 7.785-13.375 3.344-13.375-13.375-2.194-34.587 3.918-63.531 18.391-28.996 14.524-44.618 25.078-46.813 31.766v16.719c2.194 6.688 13.375 10.031 33.438 10.031 15.569 2.247 27.848 8.934 36.781 20.063 2.194 4.493 5.538 12.277 10.031 23.406 4.441 11.181 4.441 22.309 0 33.438-6.688 22.309-14.524 44.618-23.406 66.875-22.309 51.306-35.684 84.743-40.125 100.313 0 2.246-1.672 11.703-5.016 28.422s-3.918 27.272-1.672 31.766c0 4.441 3.866 10.031 11.703 16.719a123.393 123.393 0 0 0 25.078 16.719c11.129 8.882 20.585 13.897 28.422 15.047 7.785 1.098 19.488 1.672 35.109 1.672 22.257 0 36.781-1.149 43.469-3.344 42.319-13.375 70.219-28.996 83.594-46.813 6.688-11.181 10.554-21.212 11.703-30.094 1.098-8.882 1.672-25.601 1.672-50.156v-53.5c-2.246-2.194-2.246-3.344 0-3.344 0-4.441 1.098-3.344 3.344 3.344 2.194 4.493 5.016 9.509 8.359 15.047 3.344 5.59 6.113 11.703 8.359 18.391 2.194 6.688 5.016 13.375 8.359 20.063s5.016 11.703 5.016 15.047 0.522 7.262 1.672 11.703c1.098 4.493 1.672 13.375 1.672 26.75v21.734c0 3.343-1.149 8.359-3.344 15.047-6.688 13.375-16.196 24.504-28.422 33.438-12.277 8.882-27.899 16.719-46.813 23.406-18.965 6.688-39.603 11.129-61.859 13.375-44.618 2.194-82.496-3.344-113.688-16.719-17.868-6.688-33.438-20.063-46.813-40.125-8.934-15.621-15.047-28.996-18.391-40.125s-2.821-25.601 1.672-43.469c4.441-33.438 17.816-75.757 40.125-127.063 15.569-35.632 24.504-59.038 26.75-70.219 4.441-8.882 5.538-14.473 3.344-16.719-2.246-2.194-7.837-3.344-16.719-3.344-11.181 0-17.868-1.098-20.063-3.344-13.375-4.441-22.309-12.226-26.75-23.406 0-2.194-1.149-3.344-3.344-3.344-2.246 0-28.996 20.063-80.25 60.188-51.306 40.125-76.906 62.434-76.906 66.875l6.688 10.031c11.128 13.375 17.816 25.078 20.063 35.109 2.194 10.031 3.344 25.078 3.344 45.141 0 13.375-0.575 22.884-1.672 28.422-1.149 5.59-3.918 16.196-8.359 31.766-6.688 8.882-11.181 16.719-13.375 23.406-4.493 11.129-13.375 24.504-26.75 40.125-13.375 15.569-25.653 23.406-36.781 23.406-2.247 0-3.918 0.522-5.016 1.672-1.149 1.098-5.016 2.77-11.703 5.016-11.181 2.194-23.406-1.149-36.781-10.031-20.063-17.868-26.75-45.715-20.063-83.594s25.601-80.25 56.844-127.063c8.882-8.882 12.226-14.473 10.031-16.719-22.309 2.246-37.931 4.493-46.813 6.688-4.493 0-8.934-2.194-13.375-6.688-4.493-4.441-6.688-8.359-6.688-11.703s-1.149-7.21-3.344-11.703c-6.688-8.882-1.149-22.257 16.719-40.125 13.375-20.063 32.863-49.582 58.516-88.609 25.601-38.976 42.894-66.3 51.828-81.922 6.688-8.882 9.457-15.047 8.359-18.391-1.149-3.344-8.359-1.672-21.734 5.016-4.493 2.247-15.622 8.934-33.438 20.063-17.868 11.181-28.997 18.965-33.438 23.406-11.181 6.688-17.293 11.181-18.391 13.375-1.149 2.247-2.821 4.493-5.016 6.688-2.247 4.493-20.063 21.212-53.5 50.156-17.868 13.375-27.325 21.734-28.422 25.078-1.149 3.344-6.165 8.359-15.047 15.047-8.934 6.688-15.047 11.703-18.391 15.047s-9.509 6.165-18.391 8.359c-4.493 2.246-12.853 3.344-25.078 3.344-12.278 0-21.734-1.098-28.422-3.344-17.868-6.688-28.997-17.816-33.438-33.438-6.688-15.569-8.934-26.75-6.688-33.438 2.194-2.194 4.441-2.194 6.688 0 2.194 2.247 7.785 6.688 16.719 13.375 8.882 6.688 17.816 10.031 26.75 10.031 11.128 0 28.944-6.688 53.5-20.063 22.257-13.375 59.038-37.878 110.344-73.563 40.125-26.75 67.972-45.663 83.594-56.844 13.375-4.441 26.75-7.785 40.125-10.031 13.375-2.194 22.257-2.194 26.75 0 2.194 2.247 5.016 5.59 8.359 10.031 3.344 4.493 5.016 10.031 5.016 16.719-4.493 4.493-13.375 20.063-26.75 46.813s-24.556 43.469-33.438 50.156c-4.493 11.181-16.719 30.094-36.781 56.844s-31.243 43.469-33.438 50.156c-4.493 2.246-6.688 3.918-6.688 5.016 0 1.149 1.097 2.821 3.344 5.016 2.194 2.246 4.441 3.344 6.688 3.344 2.194 0 4.441-2.194 6.688-6.688 11.128 0 21.734 1.672 31.766 5.016s15.569 5.016 16.719 5.016c1.097 0 8.359-6.688 21.734-20.063 20.063-15.569 44.566-35.632 73.563-60.188 13.375-11.128 37.879-26.75 73.563-46.813 4.441-2.194 6.688-3.866 6.688-5.016v-8.359-36.781c0-20.063 6.688-57.941 20.063-113.688 6.688-37.878 10.031-60.188 10.031-66.875 8.882-33.438 12.801-57.941 11.703-73.563-1.149-15.569-7.262-26.75-18.391-33.438-2.246-2.194-4.493-3.344-6.688-3.344-2.246 0-10.031-6.688-23.406-20.063 0.003-2.195 7.788-2.195 23.409 0z m-272.516 61.859c1.097-1.097 6.113-1.672 15.047-1.672 6.688 0 11.703 0.575 15.047 1.672 3.344 1.149 13.897 7.262 31.766 18.391 15.569 6.688 25.601 17.868 30.094 33.438 6.688 8.934 10.031 22.309 10.031 40.125l3.344 20.063-6.688 6.688c-11.181 6.688-18.965 6.688-23.406 0-2.247-4.441-10.031-3.344-23.406 3.344-17.868 8.934-33.438 12.278-46.813 10.031-2.247-2.194-3.344-5.016-3.344-8.359s4.441-9.457 13.375-18.391c11.128-8.882 17.241-17.241 18.391-25.078 1.097-7.785-0.575-17.241-5.016-28.422L319.5 210.25c-8.934-15.569-14.524-25.601-16.719-30.094 0-4.441 0.523-7.21 1.672-8.359z m88.61 479.828c0-6.688-0.575-10.554-1.672-11.703-1.149-1.098-3.344-1.672-6.688-1.672s-7.262 1.672-11.703 5.016c-4.493 3.344-10.031 9.509-16.719 18.391-13.375 6.688-21.734 12.853-25.078 18.391-3.344 5.59-7.262 11.703-11.703 18.391-11.181 26.75-14.524 53.5-10.031 80.25 2.194 15.569 7.21 27.848 15.047 36.781 7.785 8.882 13.897 13.375 18.391 13.375 8.882 0 17.816-5.016 26.75-15.047 8.882-10.031 14.472-22.884 16.719-38.453 6.688-22.257 10.031-49.007 10.031-80.25 4.44-20.064 3.343-34.536-3.344-43.47z m364.468-424.656c8.882-2.194 16.719-2.194 23.406 0 8.882 0 20.063 3.918 33.438 11.703 13.375 7.837 21.16 16.196 23.406 25.078 2.194 2.247 4.441 6.165 6.688 11.703 2.194 5.59 3.344 10.606 3.344 15.047-4.493 2.247-8.359 4.493-11.703 6.688-3.344 2.247-5.016 4.493-5.016 6.688 0 2.247-0.574 3.918-1.672 5.016-1.149 1.149-10.031 1.672-26.75 1.672s-28.422 1.672-35.109 5.016-12.277 5.016-16.719 5.016c-8.934-2.194-10.031-7.785-3.344-16.719 0-2.194 1.672-8.359 5.016-18.391s5.016-16.144 5.016-18.391c0-13.375-3.344-21.16-10.031-23.406-6.688-2.194-10.031-3.866-10.031-5.016 0-1.097 0.522-2.769 1.672-5.016 1.098-2.194 3.344-3.866 6.688-5.016 3.342-1.098 7.208-1.672 11.701-1.672z" fill="#1296db" p-id="2133"></path></svg>